<svg width="36" height="36" viewBox="0 0 36 36" fill="none" xmlns="http://www.w3.org/2000/svg">
<path d="M31.7143 0H4.28571C1.92 0 0 1.92 0 4.28571V31.7143C0 34.08 1.92 36 4.28571 36H31.7143C34.08 36 36 34.08 36 31.7143V4.28571C36 1.92 34.08 0 31.7143 0ZM11.1429 13.7143V30H6V13.7143H11.1429ZM6 8.97429C6 7.77429 7.02857 6.85714 8.57143 6.85714C10.1143 6.85714 11.0829 7.77429 11.1429 8.97429C11.1429 10.1743 10.1829 11.1429 8.57143 11.1429C7.02857 11.1429 6 10.1743 6 8.97429ZM30 30H24.8571C24.8571 30 24.8571 22.0629 24.8571 21.4286C24.8571 19.7143 24 18 21.8571 17.9657H21.7886C19.7143 17.9657 18.8571 19.7314 18.8571 21.4286C18.8571 22.2086 18.8571 30 18.8571 30H13.7143V13.7143H18.8571V15.9086C18.8571 15.9086 20.5114 13.7143 23.8371 13.7143C27.24 13.7143 30 16.0543 30 20.7943V30Z" fill="white"/>
</svg>
