<svg width="36" height="36" viewBox="0 0 36 36" fill="none" xmlns="http://www.w3.org/2000/svg">
<path d="M35.1429 0H0.857143C0.384 0 0 0.384 0 0.857143V35.1429C0 35.616 0.384 36 0.857143 36H35.1429C35.616 36 36 35.616 36 35.1429V0.857143C36 0.384 35.616 0 35.1429 0ZM30.8571 8.14286L29.2963 10.026C29.1977 10.1237 29.1429 10.2557 29.1429 10.3929V24.6429C29.1429 24.78 29.1977 24.912 29.2963 25.0097L30.8571 27.0394V27.4286H22.2857V27.0394L24.7037 25.0097C24.8023 24.912 24.8571 24.78 24.8571 24.6429V11.8963L17.8697 27.4286H17.8689H16.5463L9.42857 12.3214V23.5569C9.42857 23.7454 9.49371 23.928 9.61286 24.0754L12 27.0394V27.4286H5.14286V27.0394L7.52829 24.0926C7.64829 23.9451 7.71429 23.7609 7.71429 23.5714V10.6183C7.71429 10.4966 7.67143 10.3791 7.59257 10.2857L6 8.14286V7.71429H12.0831L18.618 21.5854L24.8589 7.71429H30.8571V8.14286Z" fill="white"/>
</svg>
