<svg width="115" height="123" viewBox="0 0 115 123" fill="none" xmlns="http://www.w3.org/2000/svg">
<path d="M58.8892 1.03662L1.97998 25.5178" stroke="white" stroke-width="2"/>
<path d="M114.093 25.701L57.6914 1" stroke="white" stroke-width="2"/>
<path d="M2.48828 24.3818V65.9045" stroke="white" stroke-width="2"/>
<path d="M57.7643 121.244L2.05273 97.1655" stroke="white" stroke-width="2"/>
<path d="M114.129 96.8723L56.9292 121.244" stroke="white" stroke-width="2"/>
<path d="M57.4376 88.7729L1.72607 64.6582" stroke="white" stroke-width="2"/>
<path d="M112.641 64.2917L56.748 88.9928" stroke="white" stroke-width="2"/>
<path d="M113.294 63.0825V98.0451" stroke="white" stroke-width="2"/>
<path d="M57.3286 121.61V33.2874" stroke="white" stroke-width="2"/>
<path d="M24.8091 32.6643H89.6668" stroke="white" stroke-width="2"/>
<path d="M1 97.2388L16.9331 89.616" stroke="white" stroke-width="2"/>
<path d="M113.403 24.6016V40.6902" stroke="white" stroke-width="2"/>
<path d="M113.367 47.6167C114.269 47.6167 115 46.8784 115 45.9675C115 45.0567 114.269 44.3184 113.367 44.3184C112.465 44.3184 111.733 45.0567 111.733 45.9675C111.733 46.8784 112.465 47.6167 113.367 47.6167Z" fill="white"/>
</svg>
