<svg width="115" height="123" viewBox="0 0 115 123" fill="none" xmlns="http://www.w3.org/2000/svg">
<path d="M58.7891 1.13672L1.87988 25.6179" stroke="black" stroke-width="2"/>
<path d="M113.992 25.8011L57.5913 1.1001" stroke="black" stroke-width="2"/>
<path d="M2.38818 24.4819V66.0046" stroke="black" stroke-width="2"/>
<path d="M57.6642 121.344L1.95264 97.2656" stroke="black" stroke-width="2"/>
<path d="M114.029 96.9724L56.8291 121.344" stroke="black" stroke-width="2"/>
<path d="M57.3375 88.873L1.62598 64.7583" stroke="black" stroke-width="2"/>
<path d="M112.541 64.3918L56.6479 89.0929" stroke="black" stroke-width="2"/>
<path d="M113.194 63.1826V98.1452" stroke="black" stroke-width="2"/>
<path d="M57.2285 121.71V33.3875" stroke="black" stroke-width="2"/>
<path d="M24.709 32.7644H89.5667" stroke="black" stroke-width="2"/>
<path d="M0.899902 97.3389L16.833 89.7161" stroke="black" stroke-width="2"/>
<path d="M113.303 24.7017V40.7903" stroke="black" stroke-width="2"/>
<path d="M113.267 47.7168C114.169 47.7168 114.9 46.9785 114.9 46.0676C114.9 45.1568 114.169 44.4185 113.267 44.4185C112.365 44.4185 111.633 45.1568 111.633 46.0676C111.633 46.9785 112.365 47.7168 113.267 47.7168Z" fill="black"/>
</svg>
